<svg width="18" height="17" viewBox="0 0 18 17" fill="none" xmlns="http://www.w3.org/2000/svg">
<path fill-rule="evenodd" clip-rule="evenodd" d="M6.81417 11.88C3.28833 11.88 1.5 12.4858 1.5 13.6792C1.5 14.8842 3.28833 15.4958 6.81417 15.4958C10.34 15.4958 12.1283 14.89 12.1283 13.6975C12.1283 12.4908 10.34 11.88 6.81417 11.88ZM6.81417 16.7458C5.19083 16.7458 0.25 16.7458 0.25 13.6792C0.25 10.9458 3.99583 10.63 6.81417 10.63C8.4375 10.63 13.3783 10.63 13.3783 13.6975C13.3783 16.43 9.6325 16.7458 6.81417 16.7458Z" fill="white"/>
<path fill-rule="evenodd" clip-rule="evenodd" d="M6.81417 1.50001C5.06083 1.50001 3.63333 2.92751 3.63333 4.68167C3.63 5.53084 3.95667 6.32667 4.5525 6.92751C5.14917 7.52751 5.94417 7.86001 6.79083 7.86334L6.81417 8.48834V7.86334C8.56833 7.86334 9.99583 6.43584 9.99583 4.68167C9.99583 2.92751 8.56833 1.50001 6.81417 1.50001ZM6.81417 9.11334H6.78833C5.60583 9.10917 4.4975 8.64501 3.66667 7.80834C2.835 6.97084 2.37917 5.85917 2.38333 4.67917C2.38333 2.23834 4.37083 0.250008 6.81417 0.250008C9.25833 0.250008 11.2458 2.23834 11.2458 4.68167C11.2458 7.12501 9.25833 9.11334 6.81417 9.11334Z" fill="white"/>
<path fill-rule="evenodd" clip-rule="evenodd" d="M14.5867 9.77476C14.2417 9.77476 13.9617 9.49476 13.9617 9.14976V5.80726C13.9617 5.46226 14.2417 5.18226 14.5867 5.18226C14.9317 5.18226 15.2117 5.46226 15.2117 5.80726V9.14976C15.2117 9.49476 14.9317 9.77476 14.5867 9.77476Z" fill="white"/>
<path fill-rule="evenodd" clip-rule="evenodd" d="M16.2917 8.10317H12.8833C12.5383 8.10317 12.2583 7.82317 12.2583 7.47817C12.2583 7.13317 12.5383 6.85317 12.8833 6.85317H16.2917C16.6367 6.85317 16.9167 7.13317 16.9167 7.47817C16.9167 7.82317 16.6367 8.10317 16.2917 8.10317Z" fill="white"/>
<path fill-rule="evenodd" clip-rule="evenodd" d="M6.81417 11.88C3.28833 11.88 1.5 12.4858 1.5 13.6792C1.5 14.8842 3.28833 15.4958 6.81417 15.4958C10.34 15.4958 12.1283 14.89 12.1283 13.6975C12.1283 12.4908 10.34 11.88 6.81417 11.88ZM6.81417 16.7458C5.19083 16.7458 0.25 16.7458 0.25 13.6792C0.25 10.9458 3.99583 10.63 6.81417 10.63C8.4375 10.63 13.3783 10.63 13.3783 13.6975C13.3783 16.43 9.6325 16.7458 6.81417 16.7458Z" stroke="white" stroke-width="0.5"/>
<path fill-rule="evenodd" clip-rule="evenodd" d="M6.81417 1.50001C5.06083 1.50001 3.63333 2.92751 3.63333 4.68167C3.63 5.53084 3.95667 6.32667 4.5525 6.92751C5.14917 7.52751 5.94417 7.86001 6.79083 7.86334L6.81417 8.48834V7.86334C8.56833 7.86334 9.99583 6.43584 9.99583 4.68167C9.99583 2.92751 8.56833 1.50001 6.81417 1.50001ZM6.81417 9.11334H6.78833C5.60583 9.10917 4.4975 8.64501 3.66667 7.80834C2.835 6.97084 2.37917 5.85917 2.38333 4.67917C2.38333 2.23834 4.37083 0.250008 6.81417 0.250008C9.25833 0.250008 11.2458 2.23834 11.2458 4.68167C11.2458 7.12501 9.25833 9.11334 6.81417 9.11334Z" stroke="white" stroke-width="0.5"/>
<path fill-rule="evenodd" clip-rule="evenodd" d="M14.5867 9.77476C14.2417 9.77476 13.9617 9.49476 13.9617 9.14976V5.80726C13.9617 5.46226 14.2417 5.18226 14.5867 5.18226C14.9317 5.18226 15.2117 5.46226 15.2117 5.80726V9.14976C15.2117 9.49476 14.9317 9.77476 14.5867 9.77476Z" stroke="white" stroke-width="0.5"/>
<path fill-rule="evenodd" clip-rule="evenodd" d="M16.2917 8.10317H12.8833C12.5383 8.10317 12.2583 7.82317 12.2583 7.47817C12.2583 7.13317 12.5383 6.85317 12.8833 6.85317H16.2917C16.6367 6.85317 16.9167 7.13317 16.9167 7.47817C16.9167 7.82317 16.6367 8.10317 16.2917 8.10317Z" stroke="white" stroke-width="0.5"/>
</svg>
